<svg width="80" height="80" viewBox="0 0 80 80" fill="none" xmlns="http://www.w3.org/2000/svg">
<rect width="14.5454" height="14.5454" rx="3" fill="black"/>
<rect x="43.6363" width="14.5454" height="14.5454" rx="3" fill="black"/>
<rect x="21.8182" width="14.5454" height="14.5454" rx="3" fill="black"/>
<rect y="43.6363" width="14.5454" height="14.5454" rx="3" fill="black"/>
<rect x="43.6363" y="43.6363" width="14.5454" height="14.5454" rx="3" fill="black"/>
<rect x="21.8182" y="43.6363" width="14.5454" height="14.5454" rx="3" fill="black"/>
<rect y="21.8179" width="14.5454" height="14.5454" rx="3" fill="black"/>
<rect x="43.6363" y="21.8179" width="14.5454" height="14.5454" rx="3" fill="black"/>
<rect x="65.4544" width="14.5454" height="14.5454" rx="3" fill="black"/>
<rect x="65.4544" y="43.6363" width="14.5454" height="14.5454" rx="3" fill="black"/>
<rect y="65.4546" width="14.5454" height="14.5454" rx="3" fill="black"/>
<rect x="43.6363" y="65.4546" width="14.5454" height="14.5454" rx="3" fill="black"/>
<rect x="21.8182" y="65.4546" width="14.5454" height="14.5454" rx="3" fill="black"/>
<rect x="65.4544" y="65.4546" width="14.5454" height="14.5454" rx="3" fill="black"/>
<rect x="65.4544" y="21.8179" width="14.5454" height="14.5454" rx="3" fill="black"/>
<rect x="21.8182" y="21.8179" width="14.5454" height="14.5454" rx="3" fill="black"/>
</svg>
