<svg width="80" height="80" viewBox="0 0 80 80" fill="none" xmlns="http://www.w3.org/2000/svg">
<rect width="11.4286" height="11.4286" rx="3" fill="black"/>
<rect x="34.2857" width="11.4286" height="11.4286" rx="3" fill="black"/>
<rect x="17.1429" width="11.4286" height="11.4286" rx="3" fill="black"/>
<rect y="34.2857" width="11.4286" height="11.4286" rx="3" fill="black"/>
<rect x="34.2857" y="34.2857" width="11.4286" height="11.4286" rx="3" fill="black"/>
<rect x="17.1429" y="34.2857" width="11.4286" height="11.4286" rx="3" fill="black"/>
<rect y="17.1429" width="11.4286" height="11.4286" rx="3" fill="black"/>
<rect x="34.2857" y="17.1429" width="11.4286" height="11.4286" rx="3" fill="black"/>
<rect x="17.1429" y="17.1429" width="11.4286" height="11.4286" rx="3" fill="black"/>
<rect x="68.5714" width="11.4286" height="11.4286" rx="3" fill="black"/>
<rect x="51.4286" width="11.4286" height="11.4286" rx="3" fill="black"/>
<rect x="68.5714" y="34.2857" width="11.4286" height="11.4286" rx="3" fill="black"/>
<rect x="51.4286" y="34.2857" width="11.4286" height="11.4286" rx="3" fill="black"/>
<rect x="68.5714" y="17.1429" width="11.4286" height="11.4286" rx="3" fill="black"/>
<rect x="51.4286" y="17.1429" width="11.4286" height="11.4286" rx="3" fill="black"/>
<rect y="68.5714" width="11.4286" height="11.4286" rx="3" fill="black"/>
<rect x="34.2857" y="68.5714" width="11.4286" height="11.4286" rx="3" fill="black"/>
<rect x="17.1429" y="68.5714" width="11.4286" height="11.4286" rx="3" fill="black"/>
<rect y="51.4286" width="11.4286" height="11.4286" rx="3" fill="black"/>
<rect x="34.2857" y="51.4286" width="11.4286" height="11.4286" rx="3" fill="black"/>
<rect x="17.1429" y="51.4286" width="11.4286" height="11.4286" rx="3" fill="black"/>
<rect x="68.5714" y="68.5714" width="11.4286" height="11.4286" rx="3" fill="black"/>
<rect x="51.4286" y="68.5714" width="11.4286" height="11.4286" rx="3" fill="black"/>
<rect x="68.5714" y="51.4286" width="11.4286" height="11.4286" rx="3" fill="black"/>
<rect x="51.4286" y="51.4286" width="11.4286" height="11.4286" rx="3" fill="black"/>
</svg>
